<?xml version="1.0" encoding="iso-8859-1"?>
<!-- Generator: Adobe Illustrator 19.0.0, SVG Export Plug-In . SVG Version: 6.00 Build 0)  -->
<svg version="1.1" id="Layer_1" xmlns="http://www.w3.org/2000/svg" xmlns:xlink="http://www.w3.org/1999/xlink" x="0px" y="0px"
	 viewBox="0 0 512 512" style="enable-background:new 0 0 512 512;" xml:space="preserve">
<circle style="fill:#ECE5DD;" cx="256" cy="256" r="247.916"/>
<path style="fill:#D9CBBD;" d="M256,8.084c-10.96,0-21.752,0.72-32.337,2.099C345.304,26.029,439.242,130.04,439.242,256
	s-93.939,229.971-215.579,245.817c10.585,1.379,21.377,2.099,32.337,2.099c136.921,0,247.916-110.996,247.916-247.916
	S392.921,8.084,256,8.084z"/>
<path style="fill:#1D81CE;" d="M180.547,310.434c-30.015,0-54.434-24.419-54.434-54.434s24.419-54.434,54.434-54.434
	s54.434,24.419,54.434,54.434S210.562,310.434,180.547,310.434z"/>
<path style="fill:#E4197C;" d="M331.453,310.434c-30.015,0-54.434-24.419-54.434-54.434s24.419-54.434,54.434-54.434
	c30.015,0,54.434,24.419,54.434,54.434S361.468,310.434,331.453,310.434z"/>
<path d="M437.019,74.981C388.667,26.628,324.379,0,256,0S123.333,26.628,74.981,74.981S0,187.62,0,256
	s26.628,132.667,74.981,181.019S187.62,512,256,512s132.667-26.628,181.019-74.981C485.372,388.667,512,324.379,512,256
	S485.372,123.333,437.019,74.981z M256,495.832C123.756,495.832,16.168,388.244,16.168,256S123.756,16.168,256,16.168
	S495.832,123.756,495.832,256S388.244,495.832,256,495.832z"/>
<path d="M198.125,298.297c-6.586,2.751-13.944,4.009-21.654,3.336c-21.941-1.914-39.624-19.571-41.553-41.511
	c-2.4-27.317,19.341-50.285,46.248-49.928c24.451,0.324,44.605,20.268,45.179,44.714c0.17,7.281-1.371,14.192-4.246,20.361
	c-1.404,3.014-0.715,6.59,1.636,8.941l0.115,0.115c3.959,3.959,10.604,2.711,12.961-2.367c4.458-9.609,6.528-20.54,5.423-32.038
	c-2.889-30.059-27.545-53.868-57.682-55.772c-37.322-2.358-68.212,28.53-65.856,65.852c1.927,30.528,26.317,55.346,56.808,57.778
	c10.25,0.818,20.031-0.884,28.799-4.542c5.258-2.194,6.605-9.027,2.577-13.055c-0.039-0.039-0.079-0.079-0.117-0.118
	C204.497,297.796,201.082,297.061,198.125,298.297z"/>
<path d="M331.453,194.021c-34.176,0-61.979,27.803-61.979,61.979s27.803,61.979,61.979,61.979s61.979-27.803,61.979-61.979
	S365.628,194.021,331.453,194.021z M331.453,301.811c-25.26,0-45.811-20.55-45.811-45.811s20.55-45.811,45.811-45.811
	c25.26,0,45.811,20.55,45.811,45.811S356.713,301.811,331.453,301.811z"/>
<g>
</g>
<g>
</g>
<g>
</g>
<g>
</g>
<g>
</g>
<g>
</g>
<g>
</g>
<g>
</g>
<g>
</g>
<g>
</g>
<g>
</g>
<g>
</g>
<g>
</g>
<g>
</g>
<g>
</g>
</svg>
